<?xml version="1.0" encoding="UTF-8"?>
<svg xmlns="http://www.w3.org/2000/svg" viewBox="0 0 2786 375">
  <defs>
    <style>
      .cls-1 {
        fill: #fff;
        stroke-width: 0px;
      }
    </style>
  </defs>
  <g>
    <path class="cls-1" d="m185.08,125.78c-7.21-18.44-19.64-25.25-44.49-25.25s-36.87,12.43-36.87,28.06c0,13.63,13.23,22.85,42.88,31.66,47.7,14.43,68.54,37.68,68.54,75.35,0,56.52-40.48,94.19-115.03,94.19-50.5,0-80.57-14.43-99.8-45.69l54.51-34.47c10.42,17.24,25.65,24.85,50.5,24.85,29.26,0,40.88-13.23,40.88-28.46,0-13.23-11.22-21.25-45.29-32.87-40.08-13.63-65.33-37.67-65.33-76.15,0-48.9,32.07-91.79,115.03-91.79,44.09,0,74.95,16.44,88.98,46.9l-54.51,33.67Z"/>
    <path class="cls-1" d="m415.15,236.8c-10.82,58.12-39.28,92.99-106.22,92.99-56.91,0-80.96-40.49-70.14-92.99l4.81-23.65c12.02-58.92,42.89-91.79,105.82-91.79,56.92,0,79.36,34.47,70.14,92.19l-4.41,23.25Zm-59.32-2.8l3.2-17.64c5.61-29.66,2.41-44.49-19.24-44.49s-31.26,14.83-36.87,44.49l-3.21,17.64c-4.81,26.45-5.61,45.29,19.24,45.29s32.07-18.84,36.88-45.29Z"/>
    <path class="cls-1" d="m593.92,296.12c-19.64,24.85-44.49,33.67-82.17,33.67-56.92,0-82.97-40.08-72.95-90.59l5.61-28.06c11.62-58.92,44.49-89.78,109.42-89.78,34.07,0,57.32,14.83,64.94,35.27l-49.7,30.46c-4.01-8.02-9.22-15.23-24.05-15.23-26.45,0-36.07,14.83-41.68,44.49l-3.21,17.64c-4.81,26.45-5.61,45.29,24.05,45.29,13.63,0,22.04-4.41,30.46-14.83l39.28,31.66Z"/>
    <path class="cls-1" d="m820.78,125.37l-76.96,84.17,49.3,116.24h-66.54l-28.46-68.54-21.64,22.45-9.22,46.09h-60.12l53.71-276.56h60.12l-27.26,140.29,54.51-64.13h72.55Z"/>
    <path class="cls-1" d="m904.95,131.79c13.63-8.82,26.86-10.42,39.68-10.42,47.29,0,71.34,35.27,60.52,92.19l-4.41,23.25c-11.62,61.73-44.49,92.99-96.6,92.99-16.43,0-28.06-5.61-35.27-14.03l-1.6,10.02h-56.12l53.71-276.56h56.12l-16.03,82.57Zm36.48,102.21l3.21-17.64c5.61-29.66,2.4-44.49-19.24-44.49s-30.86,13.23-36.07,40.08l-4.01,22.05c-4.81,26.45-2.4,45.29,19.24,45.29,24.85,0,32.07-18.84,36.88-45.29Z"/>
    <path class="cls-1" d="m1100.95,203.53h35.67l1.2-6.01c4.01-19.64,1.6-27.25-26.45-27.25-17.24,0-25.65,3.2-34.87,13.63l-38.08-30.46c21.64-26.45,46.89-32.07,89.38-32.07,52.11,0,79.36,20.04,68.54,76.56l-24.85,127.86h-58.52l2.81-14.43c-8.42,10.02-21.25,18.44-45.69,18.44-30.06,0-56.52-18.84-56.52-55.31,0-45.69,34.87-70.94,87.38-70.94Zm27.66,42.49h-27.25c-18.04,0-27.66,6.81-27.66,21.64,0,9.62,7.61,14.83,21.24,14.83,20.04,0,28.86-12.02,32.47-30.46l1.2-6.01Z"/>
    <path class="cls-1" d="m1342.65,186.7c-5.61-8.82-12.83-14.03-31.26-14.03-9.22,0-20.84,2-20.84,12.02,0,5.61,6.01,8.82,22.04,12.02,44.89,8.82,63.73,30.46,63.73,60.92,0,45.29-34.47,72.15-94.19,72.15-40.88,0-63.73-10.82-77.36-34.47l51.3-32.47c5.21,9.22,12.02,15.63,34.87,15.63,14.43,0,23.65-4.01,23.65-12.43,0-6.41-6.82-9.22-23.25-12.83-38.08-8.82-62.53-28.46-62.53-60.12,0-42.88,32.07-71.75,93.79-71.75,32.87,0,58.12,9.22,69.74,34.07l-49.7,31.26Z"/>
    <path class="cls-1" d="m1559.09,296.12c-19.64,24.45-42.89,33.67-82.17,33.67-62.53,0-81.77-45.69-72.95-90.59l5.61-28.06c12.43-62.13,43.29-89.78,101.41-89.78s76.16,39.28,65.73,95.79l-4.41,23.65h-108.62c-3.61,22.84-.8,38.48,23.65,38.48,18.83,0,23.65-5.61,32.87-14.83l38.88,31.66Zm-86.98-95.39h47.7c2.8-22.04-4.01-28.86-18.04-28.86-15.63,0-24.45,10.82-29.66,28.86Z"/>
  </g>
  <g>
    <path class="cls-1" d="m2048.64,121.49h-29.02l-25.51,132.02h29.02c27.42,0,37.63-20.41,43.37-50.06l6.38-31.89c5.74-29.66,3.19-50.06-24.24-50.06Z"/>
    <polygon class="cls-1" points="1807.39 215.88 1847.89 215.88 1840.24 150.83 1807.39 215.88"/>
    <path class="cls-1" d="m1699.26.16l-72.78,374.69h1086.44L2785.7.16h-1086.44Zm158.2,297.36l-4.46-37.63h-67.92l-18.81,37.63h-58.36l119.26-220.03h51.02l33.8,220.03h-54.53Zm268.36-125.96l-6.38,32.53c-13.39,68.24-47.52,93.43-104.91,93.43h-81.95l42.73-220.03h81.95c50.07,0,81,29.97,68.56,94.07Zm176.66,125.96l24.23-124.37-62.5,88.01h-28.38l-27.43-87.06-23.92,123.41h-49.75l42.73-220.03h46.24l37.95,111.61,81-111.61h52.3l-42.73,220.03h-49.75Zm91.2,0l42.73-220.03h52.94l-42.73,220.03h-52.93Zm267.87,0h-42.09l-57.72-124.05-23.92,124.05h-49.75l42.73-220.03h41.45l58.04,125.64,24.24-125.64h49.75l-42.73,220.03Z"/>
  </g>
</svg>