<?xml version="1.0" encoding="UTF-8"?>
<svg id="_レイヤー_2" data-name="レイヤー 2" xmlns="http://www.w3.org/2000/svg" viewBox="0 0 512 512">
  <defs>
    <style>
      .cls-1 {
        fill: #ea6183;
      }

      .cls-2 {
        fill: #fff;
        stroke: #fff;
        stroke-miterlimit: 10;
        stroke-width: 20px;
      }
    </style>
  </defs>
  <g>
    <path class="cls-2" d="M432.62,108.81v294.37c0,16.26-13.18,29.44-29.44,29.44h-132.46c-8.13,0-14.72-6.59-14.72-14.72s6.59-14.72,14.72-14.72h132.46V108.81H108.82v176.62c0,8.13-6.59,14.72-14.72,14.72s-14.72-6.59-14.72-14.72V108.81c0-16.26,13.18-29.44,29.44-29.44h294.37c16.26,0,29.44,13.18,29.44,29.44ZM251.7,304.45c-5.74-5.75-15.06-5.76-20.81-.01,0,0,0,0-.01.01l-92.61,92.63-33.74-33.76c-5.75-5.75-15.08-5.75-20.83,0-5.75,5.75-5.75,15.08,0,20.83l44.15,44.15c5.74,5.75,15.06,5.76,20.81.01,0,0,0,0,.01-.01l103.03-103.03c5.75-5.74,5.76-15.06.01-20.81,0,0,0,0-.01-.01Z"/>
    <path class="cls-2" d="M359.27,181.3l7.37-37.92h-154l-25.44,130.95h190.16l-18.09-93.03ZM326.64,258.58h-118.78l19.32-99.46h118.78l-19.32,99.46Z"/>
  </g>
  <g>
    <path class="cls-1" d="M432.62,108.81v294.37c0,16.26-13.18,29.44-29.44,29.44h-132.46c-8.13,0-14.72-6.59-14.72-14.72s6.59-14.72,14.72-14.72h132.46V108.81H108.82v176.62c0,8.13-6.59,14.72-14.72,14.72s-14.72-6.59-14.72-14.72V108.81c0-16.26,13.18-29.44,29.44-29.44h294.37c16.26,0,29.44,13.18,29.44,29.44ZM251.7,304.45c-5.74-5.75-15.06-5.76-20.81-.01,0,0,0,0-.01.01l-92.61,92.63-33.74-33.76c-5.75-5.75-15.08-5.75-20.83,0-5.75,5.75-5.75,15.08,0,20.83l44.15,44.15c5.74,5.75,15.06,5.76,20.81.01,0,0,0,0,.01-.01l103.03-103.03c5.75-5.74,5.76-15.06.01-20.81,0,0,0,0-.01-.01Z"/>
    <path class="cls-1" d="M359.27,181.3l7.37-37.92h-154l-25.44,130.95h190.16l-18.09-93.03ZM326.64,258.58h-118.78l19.32-99.46h118.78l-19.32,99.46Z"/>
  </g>
</svg>