<?xml version="1.0" standalone="no"?>
<!DOCTYPE svg PUBLIC "-//W3C//DTD SVG 20010904//EN"
 "http://www.w3.org/TR/2001/REC-SVG-20010904/DTD/svg10.dtd">
<svg version="1.0" xmlns="http://www.w3.org/2000/svg"
 width="1024.000000pt" height="1024.000000pt" viewBox="0 0 1024.000000 1024.000000"
 preserveAspectRatio="xMidYMid meet">
<metadata>
Created by potrace 1.14, written by Peter Selinger 2001-2017
</metadata>
<g transform="translate(0.000000,1024.000000) scale(0.100000,-0.100000)"
fill="#000000" stroke="none">
<path d="M2715 7368 c-2 -7 -198 -1014 -435 -2238 -237 -1224 -434 -2235 -437
-2247 l-5 -23 3282 0 3282 0 -5 23 c-3 12 -144 734 -313 1604 l-307 1581 122
634 c68 348 125 643 128 656 l5 22 -2656 0 c-2117 0 -2657 -3 -2661 -12z
m4595 -544 c0 -3 -148 -770 -330 -1704 -181 -934 -330 -1701 -330 -1704 0 -3
-921 -6 -2046 -6 l-2046 0 6 28 c5 20 310 1595 647 3335 l12 57 2043 0 c1124
0 2044 -3 2044 -6z"/>
</g>
</svg>
