<?xml version="1.0" standalone="no"?>
<!DOCTYPE svg PUBLIC "-//W3C//DTD SVG 20010904//EN"
 "http://www.w3.org/TR/2001/REC-SVG-20010904/DTD/svg10.dtd">
<svg version="1.0" xmlns="http://www.w3.org/2000/svg"
 width="512.000000pt" height="512.000000pt" viewBox="0 0 512.000000 512.000000"
 preserveAspectRatio="xMidYMid meet">
<metadata>
Created by potrace 1.14, written by Peter Selinger 2001-2017
</metadata>
<g transform="translate(0.000000,512.000000) scale(0.100000,-0.100000)"
fill="#000000" stroke="none">
<path d="M1306 3458 c-26 -134 -125 -643 -220 -1133 -95 -490 -171 -893 -169
-897 5 -10 3281 -10 3286 0 2 4 -65 360 -149 792 -84 432 -153 799 -154 815 0
17 27 167 60 335 33 168 60 311 60 318 0 9 -273 12 -1333 12 l-1334 0 -47
-242z m2352 -50 c-3 -7 -79 -394 -169 -860 l-164 -848 -1022 0 c-733 0 -1023
3 -1023 11 0 11 316 1644 327 1687 l5 22 1025 0 c816 0 1024 -3 1021 -12z"/>
<path d="M2946 3220 c-16 -43 -25 -54 -62 -72 -41 -19 -47 -19 -87 -5 l-44 15
-42 -53 c-22 -30 -41 -58 -41 -63 0 -6 12 -24 26 -41 22 -27 24 -36 19 -76 -4
-25 -10 -45 -14 -45 -3 0 -23 -15 -44 -33 l-38 -32 22 -55 c13 -30 24 -57 25
-59 2 -1 25 4 52 13 46 16 51 16 80 -1 27 -16 31 -24 34 -68 l3 -50 71 -3 72
-3 17 49 c15 41 25 53 61 70 40 20 46 20 85 6 24 -8 46 -11 50 -7 4 5 25 30
47 58 l40 49 -30 37 c-25 31 -28 41 -22 78 6 35 15 48 50 74 24 18 43 35 44
39 0 4 -11 32 -24 62 l-24 55 -49 -15 c-43 -13 -51 -13 -80 3 -29 15 -32 22
-35 68 l-3 50 -70 3 -71 3 -18 -51z m97 -171 c85 -44 73 -162 -22 -226 -55
-37 -144 -23 -171 26 -14 28 -12 87 4 119 37 72 130 111 189 81z"/>
<path d="M2101 2778 c-46 -119 -44 -116 -105 -147 l-59 -29 -49 19 c-27 10
-55 19 -62 19 -7 0 -41 -36 -76 -81 l-62 -81 45 -46 45 -47 -12 -59 c-13 -61
-22 -72 -119 -141 -17 -12 -16 -17 15 -95 36 -91 28 -88 129 -56 44 14 46 13
92 -17 l47 -31 0 -68 0 -68 98 0 97 0 26 68 c25 63 29 69 84 98 l58 31 63 -20
c35 -12 65 -19 67 -16 63 80 117 153 117 158 0 5 -9 16 -21 27 -53 48 -61 69
-48 133 11 56 14 61 70 102 33 23 59 45 59 48 0 21 -56 154 -66 158 -8 3 -41
-4 -75 -16 l-61 -20 -33 24 c-17 14 -37 25 -43 25 -7 0 -12 28 -14 73 l-3 72
-98 3 c-93 3 -98 2 -106 -20z m138 -278 c78 -39 101 -143 52 -238 -55 -106
-196 -162 -291 -114 -128 64 -98 272 52 346 64 32 132 34 187 6z"/>
</g>
</svg>
