<?xml version="1.0" encoding="UTF-8"?>
<svg xmlns="http://www.w3.org/2000/svg" viewBox="0 0 2168 374">
  <defs>
    <style>
      .cls-1 {
        fill: #fff;
      }
    </style>
  </defs>
  <path class="cls-1" d="m2115.35,108.32L2136.38.03h-439.77l-72.64,373.95h543.02l-51.65-265.66Zm-93.16,220.69h-339.19l55.17-284.02h339.19l-55.17,284.02Z"/>
  <g>
    <path class="cls-1" d="m185.41,125.4c-7.2-18.4-19.6-25.2-44.4-25.2s-36.8,12.4-36.8,28c0,13.6,13.2,22.8,42.8,31.6,47.61,14.4,68.41,37.6,68.41,75.21,0,56.4-40.4,94.01-114.81,94.01-50.4,0-80.41-14.4-99.61-45.6l54.41-34.4c10.4,17.2,25.6,24.8,50.4,24.8,29.2,0,40.8-13.2,40.8-28.4,0-13.2-11.2-21.2-45.2-32.81-40-13.6-65.2-37.6-65.2-76,0-48.8,32-91.61,114.81-91.61,44,0,74.81,16.4,88.81,46.81l-54.41,33.6Z"/>
    <path class="cls-1" d="m415.03,236.2c-10.8,58-39.2,92.81-106.01,92.81-56.8,0-80.8-40.41-70-92.81l4.8-23.6c12-58.8,42.8-91.6,105.61-91.6,56.8,0,79.2,34.4,70,92l-4.4,23.2Zm-59.2-2.8l3.2-17.6c5.6-29.6,2.4-44.4-19.2-44.4s-31.2,14.8-36.8,44.4l-3.2,17.6c-4.8,26.4-5.6,45.2,19.2,45.2s32-18.8,36.8-45.2Z"/>
    <path class="cls-1" d="m593.45,295.41c-19.6,24.8-44.4,33.61-82.01,33.61-56.8,0-82.81-40.01-72.8-90.41l5.6-28c11.6-58.8,44.4-89.61,109.21-89.61,34.01,0,57.2,14.8,64.81,35.2l-49.6,30.4c-4-8-9.2-15.2-24-15.2-26.4,0-36,14.8-41.6,44.4l-3.2,17.6c-4.8,26.4-5.6,45.2,24,45.2,13.6,0,22-4.4,30.4-14.8l39.2,31.6Z"/>
    <path class="cls-1" d="m819.86,125l-76.81,84.01,49.2,116.01h-66.41l-28.4-68.41-21.6,22.4-9.2,46h-60l53.6-276.02h60.01l-27.2,140.01,54.41-64h72.4Z"/>
    <path class="cls-1" d="m903.87,131.4c13.6-8.8,26.81-10.4,39.61-10.4,47.2,0,71.2,35.2,60.4,92l-4.4,23.2c-11.6,61.61-44.4,92.81-96.41,92.81-16.4,0-28-5.6-35.2-14l-1.6,10h-56l53.6-276.02h56l-16,82.41Zm36.4,102.01l3.2-17.6c5.6-29.6,2.4-44.4-19.2-44.4s-30.8,13.2-36,40l-4,22c-4.8,26.4-2.4,45.2,19.2,45.2,24.8,0,32-18.8,36.8-45.2Z"/>
    <path class="cls-1" d="m1099.48,203h35.6l1.2-6c4-19.6,1.6-27.2-26.4-27.2-17.2,0-25.6,3.2-34.8,13.6l-38-30.4c21.6-26.4,46.8-32,89.21-32,52,0,79.2,20,68.4,76.41l-24.8,127.61h-58.4l2.8-14.4c-8.4,10-21.2,18.4-45.6,18.4-30,0-56.4-18.8-56.4-55.21,0-45.6,34.8-70.8,87.2-70.8Zm27.6,42.4h-27.2c-18,0-27.6,6.8-27.6,21.6,0,9.6,7.6,14.8,21.2,14.8,20,0,28.8-12,32.41-30.4l1.2-6Z"/>
    <path class="cls-1" d="m1340.7,186.2c-5.6-8.8-12.8-14-31.2-14-9.2,0-20.8,2-20.8,12,0,5.6,6,8.8,22,12,44.8,8.8,63.6,30.4,63.6,60.8,0,45.2-34.4,72.01-94.01,72.01-40.8,0-63.6-10.8-77.2-34.4l51.2-32.4c5.2,9.2,12,15.6,34.8,15.6,14.4,0,23.6-4,23.6-12.4,0-6.4-6.8-9.2-23.2-12.8-38-8.8-62.41-28.4-62.41-60.01,0-42.8,32-71.6,93.61-71.6,32.8,0,58,9.2,69.61,34l-49.6,31.2Z"/>
    <path class="cls-1" d="m1556.72,295.41c-19.6,24.4-42.8,33.61-82.01,33.61-62.41,0-81.61-45.6-72.81-90.41l5.6-28c12.4-62.01,43.2-89.61,101.21-89.61s76.01,39.2,65.6,95.61l-4.4,23.6h-108.41c-3.6,22.8-.8,38.4,23.6,38.4,18.8,0,23.6-5.6,32.8-14.8l38.8,31.6Zm-86.81-95.21h47.61c2.8-22-4-28.8-18-28.8-15.6,0-24.4,10.8-29.6,28.8Z"/>
  </g>
</svg>